<svg xmlns="http://www.w3.org/2000/svg" aria-hidden="true" role="img" viewBox="0 0 410 404">
  <path d="M399.641 59.524L215.643 388.545c-3.548 6.355-12.678 6.38-16.265.045L10.159 59.522c-3.89-6.772 1.95-14.9 9.593-13.354l185.967 37.622a9.765 9.765 0 003.874-.001L390.05 46.168c7.62-1.585 13.48 6.537 9.59 13.356z" fill="#41D1FF"/>
  <path d="M292.965 1.574L156.267 28.454a4.793 4.793 0 00-3.941 3.977L123.11 202.367a4.793 4.793 0 006.166 5.187l38.066-11.243a4.793 4.793 0 016.044 5.595l-11.31 55.468a4.793 4.793 0 006.253 5.476l23.511-7.133a4.793 4.793 0 016.074 5.799l-17.981 86.577c-1.125 5.418 6.112 8.374 9.125 3.727l2.012-3.104 111.426-222.3c1.85-3.69-1.35-7.92-5.423-7.148l-39.198 7.441a4.793 4.793 0 01-5.544-6.184l25.563-88.365a4.793 4.793 0 00-5.72-6.22z" fill="#BD34FE"/>
  <path d="M292.965 1.574L156.267 28.454a4.793 4.793 0 00-3.941 3.977L123.11 202.367a4.793 4.793 0 006.166 5.187l38.066-11.243a4.793 4.793 0 016.044 5.595l-11.31 55.468a4.793 4.793 0 006.253 5.476l23.511-7.133a4.793 4.793 0 016.074 5.799l-17.981 86.577c-1.125 5.418 6.112 8.374 9.125 3.727l2.012-3.104 111.426-222.3c1.85-3.69-1.35-7.92-5.423-7.148l-39.198 7.441a4.793 4.793 0 01-5.544-6.184l25.563-88.365a4.793 4.793 0 00-5.72-6.22z" fill="url(#paint0_linear)"/>
  <defs>
    <linearGradient id="paint0_linear" x1="6.00037" y1="32.9999" x2="235" y2="344" gradientUnits="userSpaceOnUse">
      <stop stop-color="#FFEA83"/>
      <stop offset=".0833333" stop-color="#FFDD35"/>
      <stop offset="1" stop-color="#FFA800"/>
    </linearGradient>
  </defs>
</svg>
